<mxfile host="app.diagrams.net" modified="2023-12-18T22:28:08.966Z" agent="Mozilla/5.0 (Windows NT 10.0; Win64; x64) AppleWebKit/537.36 (KHTML, like Gecko) Chrome/120.0.0.0 Safari/537.36" version="22.1.11" etag="f2uiUQv84wQsylQQx46k" type="github">
  <diagram name="Page-1" id="ynxmdBR0fKhgFRv7cBId">
    <mxGraphModel>
      <root>
        <mxCell id="0" />
        <mxCell id="1" parent="0" />
      </root>
    </mxGraphModel>
  </diagram>
</mxfile>
